<svg xmlns="http://www.w3.org/2000/svg" width="40" height="40" viewBox="0 0 40 40" fill="none">
  <path d="M37.0625 23.7297C36.9581 23.4384 36.8355 23.154 36.6953 22.8781L30.1969 8.09375C30.1354 7.95136 30.0474 7.82197 29.9375 7.7125C29.4732 7.24809 28.9219 6.87969 28.3152 6.62834C27.7085 6.377 27.0583 6.24763 26.4016 6.24763C25.7449 6.24763 25.0946 6.377 24.4879 6.62834C23.8812 6.87969 23.3299 7.24809 22.8656 7.7125C22.632 7.94636 22.5006 8.26321 22.5 8.59375V12.5H17.5V8.59375C17.5001 8.42955 17.4679 8.26693 17.4052 8.11519C17.3424 7.96345 17.2504 7.82555 17.1344 7.70938C16.6701 7.24496 16.1188 6.87656 15.5121 6.62522C14.9054 6.37387 14.2551 6.24451 13.5984 6.24451C12.9417 6.24451 12.2915 6.37387 11.6848 6.62522C11.0781 6.87656 10.5268 7.24496 10.0625 7.70938C9.95263 7.81885 9.8646 7.94823 9.80313 8.09063L3.30469 22.875C3.16451 23.1509 3.04187 23.4353 2.9375 23.7266C2.56953 24.7562 2.43112 25.8537 2.53197 26.9424C2.63282 28.0312 2.97049 29.0846 3.52132 30.0291C4.07215 30.9736 4.82282 31.7862 5.72075 32.4101C6.61868 33.0339 7.64215 33.4539 8.71946 33.6405C9.79677 33.8272 10.9019 33.7761 11.9573 33.4908C13.0128 33.2054 13.9931 32.6927 14.8296 31.9887C15.6661 31.2846 16.3386 30.4061 16.7999 29.4148C17.2611 28.4235 17.5001 27.3434 17.5 26.25V15H22.5V26.25C22.4994 27.3435 22.738 28.4239 23.199 29.4155C23.66 30.4071 24.3322 31.2859 25.1686 31.9903C26.0049 32.6947 26.9852 33.2077 28.0408 33.4934C29.0963 33.779 30.2015 33.8304 31.279 33.6439C32.3565 33.4575 33.3802 33.0376 34.2783 32.4138C35.1764 31.7901 35.9273 30.9774 36.4783 30.0329C37.0293 29.0884 37.3671 28.0348 37.468 26.946C37.5689 25.8571 37.4305 24.7594 37.0625 23.7297ZM11.9859 9.33594C12.4027 8.98504 12.9227 8.77988 13.4667 8.75167C14.0108 8.72347 14.5492 8.87376 15 9.17969V20.6656C14.0241 19.7893 12.835 19.1848 11.5518 18.9128C10.2687 18.6408 8.93664 18.7107 7.68906 19.1156L11.9859 9.33594ZM10 31.25C9.01109 31.25 8.0444 30.9568 7.22215 30.4074C6.3999 29.8579 5.75904 29.077 5.3806 28.1634C5.00217 27.2498 4.90315 26.2445 5.09607 25.2746C5.289 24.3046 5.7652 23.4137 6.46447 22.7145C7.16373 22.0152 8.05464 21.539 9.02455 21.3461C9.99445 21.1531 10.9998 21.2522 11.9134 21.6306C12.827 22.009 13.6079 22.6499 14.1573 23.4722C14.7068 24.2944 15 25.2611 15 26.25C15 27.5761 14.4732 28.8479 13.5355 29.7855C12.5979 30.7232 11.3261 31.25 10 31.25ZM25 9.17813C25.4508 8.8722 25.9892 8.7219 26.5333 8.75011C27.0773 8.77831 27.5973 8.98347 28.0141 9.33438L32.3109 19.1125C31.0632 18.7078 29.7311 18.6381 28.4479 18.9104C27.1648 19.1827 25.9758 19.7875 25 20.6641V9.17813ZM30 31.25C29.0111 31.25 28.0444 30.9568 27.2221 30.4074C26.3999 29.8579 25.759 29.077 25.3806 28.1634C25.0022 27.2498 24.9031 26.2445 25.0961 25.2746C25.289 24.3046 25.7652 23.4137 26.4645 22.7145C27.1637 22.0152 28.0546 21.539 29.0245 21.3461C29.9945 21.1531 30.9998 21.2522 31.9134 21.6306C32.827 22.009 33.6079 22.6499 34.1573 23.4722C34.7068 24.2944 35 25.2611 35 26.25C35 27.5761 34.4732 28.8479 33.5355 29.7855C32.5979 30.7232 31.3261 31.25 30 31.25Z" fill="#557896"/>
</svg>
